<?xml version="1.0" standalone="no"?>
<!DOCTYPE svg PUBLIC "-//W3C//DTD SVG 20010904//EN"
 "http://www.w3.org/TR/2001/REC-SVG-20010904/DTD/svg10.dtd">
<svg version="1.0" xmlns="http://www.w3.org/2000/svg"
 width="2046.000000pt" height="538.000000pt" viewBox="0 0 2046.000000 538.000000"
 preserveAspectRatio="xMidYMid meet">

<g transform="translate(0.000000,538.000000) scale(0.100000,-0.100000)"
fill="#000000" stroke="none">
<path d="M7915 5374 c-478 -40 -935 -198 -1325 -459 -168 -112 -273 -198 -410
-335 -463 -463 -737 -1079 -768 -1729 -14 -290 10 -570 69 -810 91 -368 174
-571 330 -802 123 -183 348 -420 560 -589 312 -250 711 -447 1094 -541 236
-58 373 -73 655 -73 221 0 273 3 389 23 162 28 377 81 603 150 92 28 169 51
172 51 4 0 6 357 6 793 l0 793 -98 -95 c-173 -169 -362 -285 -587 -360 -169
-57 -280 -74 -460 -74 -307 1 -568 77 -801 233 -105 71 -256 224 -327 331
-175 265 -257 598 -228 933 19 218 57 360 151 551 187 386 529 639 959 710
150 25 424 16 571 -18 312 -74 568 -225 762 -450 l58 -68 0 794 0 793 -142 52
c-253 92 -466 146 -704 177 -118 16 -433 27 -529 19z"/>
<path d="M3260 5350 c-614 -75 -1089 -390 -1335 -885 -137 -276 -194 -553
-182 -890 15 -413 122 -690 351 -902 218 -204 499 -333 976 -447 262 -63 523
-162 643 -245 126 -87 197 -199 205 -326 12 -196 -94 -368 -280 -454 -129 -60
-201 -75 -363 -75 -162 0 -266 17 -428 71 -195 65 -427 196 -612 347 -44 37
-91 75 -105 85 l-25 19 -277 -522 c-152 -286 -280 -528 -283 -537 -13 -34 375
-256 623 -358 413 -169 790 -239 1221 -228 412 11 694 77 1016 237 194 97 319
184 446 311 225 226 363 518 424 904 22 135 31 484 16 598 -19 143 -57 272
-114 391 -129 266 -339 462 -667 620 -175 84 -265 116 -610 221 -157 48 -329
104 -383 125 -190 74 -308 165 -363 277 -25 49 -29 70 -29 138 0 71 4 89 33
147 57 116 174 203 337 250 152 44 385 28 585 -38 145 -49 328 -149 460 -253
l26 -20 259 505 c143 278 261 511 263 518 3 13 -237 133 -368 184 -250 98
-563 178 -846 218 -131 18 -509 26 -614 14z"/>
<path d="M19670 5295 c-138 -28 -232 -78 -324 -175 -190 -199 -206 -585 -31
-755 61 -59 155 -103 345 -160 179 -54 245 -86 277 -134 36 -53 28 -128 -20
-179 -42 -45 -94 -64 -177 -64 -126 -1 -255 48 -364 136 l-55 45 -100 -191
c-93 -176 -99 -192 -83 -204 44 -33 235 -125 309 -148 181 -56 432 -57 600 -1
255 86 403 302 403 589 0 164 -35 253 -137 353 -68 67 -174 118 -358 173 -224
68 -265 95 -265 179 0 112 114 177 263 151 60 -11 156 -54 209 -93 15 -11 29
-19 32 -16 13 15 187 361 183 365 -2 3 -42 20 -88 39 -231 94 -445 125 -619
90z"/>
<path d="M10805 5294 c-237 -35 -408 -118 -565 -274 -146 -146 -238 -324 -270
-523 -17 -106 -8 -290 20 -386 76 -267 258 -484 496 -592 160 -73 378 -110
526 -91 82 11 226 48 294 77 l34 14 0 270 c0 149 -2 271 -5 271 -3 0 -33 -22
-65 -49 -167 -139 -375 -167 -567 -76 -381 180 -318 783 92 890 169 44 360 -6
485 -126 28 -27 53 -49 56 -49 2 0 4 124 4 276 l0 275 -43 19 c-87 39 -238 71
-352 75 -60 2 -123 1 -140 -1z"/>
<path d="M11733 4377 c-189 -491 -343 -898 -343 -905 0 -9 57 -12 244 -12
l244 0 62 155 62 155 325 -2 325 -3 52 -141 c29 -77 56 -145 60 -152 9 -16
496 -17 496 -2 0 6 -151 413 -336 905 l-337 895 -256 0 -256 0 -342 -893z
m696 35 c50 -145 91 -268 91 -273 0 -5 -84 -9 -193 -9 l-193 0 94 281 c52 154
98 277 102 272 4 -4 48 -127 99 -271z"/>
<path d="M13620 5268 c-36 -194 -305 -1795 -303 -1800 2 -5 107 -8 233 -8
l228 0 6 28 c3 15 37 243 76 507 39 264 72 484 73 488 1 4 95 -223 209 -505
l206 -513 88 -3 c48 -2 92 2 97 7 6 6 106 238 222 517 197 469 213 504 219
468 6 -41 126 -980 126 -989 0 -3 106 -5 235 -5 129 0 235 4 235 9 0 12 -259
1741 -266 1774 l-6 27 -232 0 -233 0 -188 -467 c-104 -258 -191 -472 -195
-476 -4 -4 -87 205 -186 465 l-180 473 -232 3 c-128 1 -232 1 -232 0z"/>
<path d="M15790 4366 l0 -906 235 0 235 0 0 300 0 300 189 0 c126 0 216 5 268
15 220 42 383 198 428 410 19 91 19 272 0 353 -46 193 -198 349 -400 408 -52
15 -117 18 -507 21 l-448 4 0 -905z m760 497 c88 -39 126 -115 117 -231 -11
-140 -96 -192 -318 -192 l-89 0 0 226 0 227 123 -5 c93 -4 133 -10 167 -25z"/>
<path d="M17330 4693 c0 -626 5 -703 55 -846 30 -86 100 -193 164 -248 57 -49
183 -113 276 -139 222 -63 501 -43 685 50 138 70 259 193 325 331 63 133 65
161 65 830 l0 599 -235 0 -234 0 -3 -602 c-3 -596 -3 -604 -25 -650 -28 -60
-86 -118 -149 -149 -41 -20 -64 -24 -139 -24 -80 0 -97 3 -148 30 -68 34 -100
68 -136 145 l-26 55 -3 598 -3 597 -234 0 -235 0 0 -577z"/>
<path d="M10 2700 l0 -2540 660 0 660 0 0 2540 0 2540 -660 0 -660 0 0 -2540z
m580 799 l0 -201 33 7 c53 12 98 45 118 89 34 76 18 142 -49 196 l-40 32 20
34 c11 19 25 34 30 34 24 0 88 -65 112 -112 54 -108 24 -253 -65 -317 -58 -43
-103 -54 -195 -49 -88 4 -134 22 -183 70 -54 52 -66 84 -66 173 0 69 4 86 27
127 41 68 131 115 226 117 l32 1 0 -201z m108 -409 c56 -24 106 -74 128 -126
30 -71 8 -203 -39 -243 -10 -7 -17 -17 -17 -22 0 -5 77 -9 170 -9 l170 0 0
-45 0 -45 -400 0 -400 0 0 45 c0 43 1 45 30 45 36 0 37 4 5 41 -27 33 -45 87
-45 139 0 187 208 302 398 220z m55 -670 c20 -14 48 -47 63 -73 23 -42 26 -58
22 -117 -3 -57 -9 -77 -33 -111 -53 -74 -72 -79 -297 -79 l-198 0 0 45 0 45
175 0 c197 0 233 8 259 59 19 36 20 57 5 100 -18 51 -37 56 -244 61 l-190 5
-3 48 -3 48 204 -3 c198 -3 204 -4 240 -28z m-71 -523 c49 -20 95 -63 126
-116 24 -41 27 -56 27 -136 0 -73 -4 -98 -22 -131 -85 -159 -306 -192 -433
-64 -95 94 -107 243 -29 356 67 98 217 139 331 91z m-288 -610 c-5 -36 -2 -48
17 -71 33 -37 78 -45 262 -46 l157 0 0 -45 0 -45 -260 0 -260 0 0 45 c0 41 2
45 25 45 l24 0 -24 26 c-31 33 -41 85 -26 135 l12 39 39 -20 c39 -20 39 -21
34 -63z m578 -389 c97 -45 145 -135 135 -253 -8 -105 -69 -187 -156 -214 -71
-21 -81 -17 -81 33 0 42 1 44 35 50 49 10 102 59 116 108 32 121 -47 207 -190
208 l-64 0 21 -23 c73 -78 68 -235 -10 -319 -52 -55 -104 -73 -208 -73 -105 0
-150 16 -201 72 -49 52 -64 92 -64 175 0 70 3 80 32 122 l33 46 -30 0 c-29 0
-30 2 -30 43 0 24 3 47 8 51 4 4 140 6 302 4 l295 -3 57 -27z"/>
<path d="M463 3584 c-70 -35 -100 -143 -56 -202 20 -27 79 -72 94 -72 5 0 9
65 9 145 0 80 -3 145 -7 145 -5 0 -23 -8 -40 -16z"/>
<path d="M484 3001 c-131 -59 -131 -233 0 -292 138 -62 301 45 272 178 -24
110 -158 166 -272 114z"/>
<path d="M490 1804 c-70 -30 -103 -81 -103 -159 0 -122 103 -196 238 -171 48
9 112 68 126 116 16 53 4 123 -29 161 -52 63 -156 86 -232 53z"/>
<path d="M507 828 c-141 -38 -165 -233 -36 -298 48 -25 147 -27 195 -4 141 67
115 264 -39 303 -53 13 -68 13 -120 -1z"/>
<path d="M16081 3209 c-243 -47 -412 -204 -466 -430 -8 -35 -15 -109 -15 -164
0 -158 31 -246 115 -331 65 -66 155 -109 355 -169 237 -72 290 -109 290 -206
0 -65 -28 -109 -90 -141 -44 -24 -65 -28 -129 -28 -123 0 -237 43 -356 133
-33 25 -61 45 -62 44 -8 -9 -193 -367 -193 -374 0 -13 141 -95 217 -127 147
-61 203 -71 408 -71 211 0 265 10 385 68 89 43 206 160 248 247 83 177 92 391
22 536 -40 82 -136 172 -232 218 -40 19 -136 53 -213 76 -228 69 -270 97 -270
184 0 60 21 94 77 126 97 55 245 28 395 -70 l32 -21 91 180 c49 100 90 183 90
185 0 7 -104 53 -186 81 -165 57 -383 80 -513 54z"/>
<path d="M10040 2280 l0 -900 235 0 235 0 0 294 0 294 218 5 c156 3 234 9 277
21 206 56 347 206 391 416 24 113 15 302 -18 397 -50 141 -177 274 -308 324
-119 45 -162 49 -607 49 l-423 0 0 -900z m720 509 c94 -21 148 -86 157 -187 7
-79 -11 -139 -56 -183 -48 -48 -91 -59 -233 -59 l-118 0 0 220 0 220 103 0
c56 0 122 -5 147 -11z"/>
<path d="M11891 3158 c-5 -13 -158 -410 -339 -883 -182 -473 -334 -868 -337
-877 -7 -17 9 -18 242 -18 l250 0 59 150 59 150 326 0 327 0 53 -150 54 -150
252 0 253 0 -26 68 c-14 37 -165 441 -337 897 l-313 830 -257 3 -257 2 -9 -22z
m459 -1115 c0 -2 -88 -3 -195 -3 -107 0 -195 1 -195 3 0 3 178 536 186 557 4
11 203 -533 204 -557z"/>
<path d="M13220 2280 l0 -900 235 0 235 0 2 337 3 338 219 -338 218 -337 289
0 c159 0 289 2 289 5 0 3 -124 167 -276 366 -152 198 -274 362 -273 363 2 2
26 9 52 16 54 15 148 68 190 108 101 96 160 290 137 451 -29 205 -133 359
-294 435 -106 50 -171 56 -616 56 l-410 0 0 -900z m725 503 c22 -12 50 -32 62
-45 73 -78 70 -216 -7 -289 -48 -46 -110 -67 -222 -75 l-88 -7 0 223 0 222
108 -4 c84 -3 116 -9 147 -25z"/>
<path d="M14840 2280 l0 -900 235 0 235 0 0 900 0 900 -235 0 -235 0 0 -900z"/>
<path d="M13392 1057 c-45 -48 -14 -117 52 -117 26 0 40 7 56 27 55 71 -47
156 -108 90z"/>
<path d="M10255 805 c-21 -9 -49 -25 -62 -37 l-23 -21 0 26 c0 26 -2 27 -60
27 l-60 0 0 -380 0 -380 60 0 60 0 0 154 0 155 56 -30 c61 -31 91 -35 159 -18
155 39 222 260 125 412 -53 84 -167 125 -255 92z m122 -115 c18 -10 39 -33 48
-49 18 -35 20 -132 4 -164 -37 -71 -105 -99 -175 -72 -145 55 -109 305 44 305
29 0 59 -8 79 -20z"/>
<path d="M11359 805 c-51 -16 -109 -69 -135 -124 -23 -46 -30 -159 -14 -217
44 -158 220 -222 348 -127 l32 24 0 -25 c0 -25 3 -26 55 -26 l55 0 0 245 0
245 -55 0 c-52 0 -55 -1 -55 -25 0 -31 -5 -31 -41 0 -30 25 -88 45 -124 44
-11 0 -41 -7 -66 -14z m162 -111 c60 -30 85 -133 53 -214 -22 -55 -65 -84
-125 -84 -58 0 -92 22 -119 74 -39 76 -15 190 48 224 36 20 105 20 143 0z"/>
<path d="M12590 804 c-19 -8 -42 -22 -52 -31 -17 -15 -18 -15 -18 5 0 20 -5
22 -55 22 l-55 0 0 -245 0 -245 55 0 55 0 0 143 c0 78 5 159 10 179 19 66 77
92 140 64 12 -5 22 6 38 39 12 25 22 48 22 51 0 8 -67 34 -87 34 -10 -1 -34
-8 -53 -16z"/>
<path d="M14313 800 c-54 -24 -83 -70 -83 -132 0 -61 28 -94 118 -141 83 -44
96 -58 88 -92 -13 -53 -83 -54 -122 -2 l-19 24 -42 -20 c-53 -26 -54 -45 -8
-90 58 -57 138 -71 211 -38 57 26 87 72 92 141 4 52 2 60 -27 92 -18 20 -62
50 -102 69 -75 36 -99 60 -78 85 16 20 53 17 74 -6 17 -19 18 -19 56 0 20 11
40 24 44 29 10 17 -55 80 -93 91 -50 13 -60 13 -109 -10z"/>
<path d="M13390 555 l0 -245 55 0 55 0 0 245 0 245 -55 0 -55 0 0 -245z"/>
</g>
</svg>
