<?xml version="1.0" standalone="no"?>
<!DOCTYPE svg PUBLIC "-//W3C//DTD SVG 20010904//EN"
 "http://www.w3.org/TR/2001/REC-SVG-20010904/DTD/svg10.dtd">
<svg version="1.0" xmlns="http://www.w3.org/2000/svg"
 width="2141.000000pt" height="538.000000pt" viewBox="0 0 2141.000000 538.000000"
 preserveAspectRatio="xMidYMid meet">

<g transform="translate(0.000000,538.000000) scale(0.100000,-0.100000)"
fill="#000000" stroke="none">
<path d="M7915 5374 c-478 -40 -935 -198 -1325 -459 -168 -112 -273 -198 -410
-335 -463 -463 -737 -1079 -768 -1729 -14 -290 10 -570 69 -810 91 -368 174
-571 330 -802 123 -183 348 -420 560 -589 312 -250 711 -447 1094 -541 236
-58 373 -73 655 -73 221 0 273 3 389 23 162 28 377 81 603 150 92 28 169 51
172 51 4 0 6 357 6 793 l0 793 -98 -95 c-173 -169 -362 -285 -587 -360 -169
-57 -280 -74 -460 -74 -307 1 -568 77 -801 233 -105 71 -256 224 -327 331
-175 265 -257 598 -228 933 19 218 57 360 151 551 187 386 529 639 959 710
150 25 424 16 571 -18 312 -74 568 -225 762 -450 l58 -68 0 794 0 793 -142 52
c-253 92 -466 146 -704 177 -118 16 -433 27 -529 19z"/>
<path d="M3260 5350 c-614 -75 -1089 -390 -1335 -885 -137 -276 -194 -553
-182 -890 15 -413 122 -690 351 -902 218 -204 499 -333 976 -447 262 -63 523
-162 643 -245 126 -87 197 -199 205 -326 12 -196 -94 -368 -280 -454 -129 -60
-201 -75 -363 -75 -162 0 -266 17 -428 71 -195 65 -427 196 -612 347 -44 37
-91 75 -105 85 l-25 19 -277 -522 c-152 -286 -280 -528 -283 -537 -13 -34 375
-256 623 -358 413 -169 790 -239 1221 -228 412 11 694 77 1016 237 194 97 319
184 446 311 225 226 363 518 424 904 22 135 31 484 16 598 -19 143 -57 272
-114 391 -129 266 -339 462 -667 620 -175 84 -265 116 -610 221 -157 48 -329
104 -383 125 -190 74 -308 165 -363 277 -25 49 -29 70 -29 138 0 71 4 89 33
147 57 116 174 203 337 250 152 44 385 28 585 -38 145 -49 328 -149 460 -253
l26 -20 259 505 c143 278 261 511 263 518 3 13 -237 133 -368 184 -250 98
-563 178 -846 218 -131 18 -509 26 -614 14z"/>
<path d="M10 2700 l0 -2540 660 0 660 0 0 2540 0 2540 -660 0 -660 0 0 -2540z
m580 799 l0 -201 33 7 c53 12 98 45 118 89 34 76 18 142 -49 196 l-40 32 20
34 c11 19 25 34 30 34 24 0 88 -65 112 -112 54 -108 24 -253 -65 -317 -58 -43
-103 -54 -195 -49 -88 4 -134 22 -183 70 -54 52 -66 84 -66 173 0 69 4 86 27
127 41 68 131 115 226 117 l32 1 0 -201z m108 -409 c56 -24 106 -74 128 -126
30 -71 8 -203 -39 -243 -10 -7 -17 -17 -17 -22 0 -5 77 -9 170 -9 l170 0 0
-45 0 -45 -400 0 -400 0 0 45 c0 43 1 45 30 45 36 0 37 4 5 41 -27 33 -45 87
-45 139 0 187 208 302 398 220z m55 -670 c20 -14 48 -47 63 -73 23 -42 26 -58
22 -117 -3 -57 -9 -77 -33 -111 -53 -74 -72 -79 -297 -79 l-198 0 0 45 0 45
175 0 c197 0 233 8 259 59 19 36 20 57 5 100 -18 51 -37 56 -244 61 l-190 5
-3 48 -3 49 204 -4 c198 -3 204 -4 240 -28z m-71 -523 c49 -20 95 -63 126
-116 24 -41 27 -56 27 -136 0 -73 -4 -98 -22 -131 -85 -159 -306 -192 -433
-64 -95 94 -107 243 -29 356 67 98 217 139 331 91z m-288 -610 c-5 -36 -2 -48
17 -71 33 -37 78 -45 262 -46 l157 0 0 -45 0 -45 -260 0 -260 0 0 45 c0 41 2
45 25 45 l24 0 -24 26 c-31 33 -41 85 -26 135 l12 39 39 -20 c39 -20 39 -21
34 -63z m578 -389 c97 -45 145 -135 135 -253 -8 -105 -69 -187 -156 -214 -71
-21 -81 -17 -81 33 0 42 1 44 35 50 49 10 102 59 116 108 32 121 -47 207 -190
208 l-64 0 21 -23 c73 -78 68 -235 -10 -319 -52 -55 -104 -73 -208 -73 -105 0
-150 16 -201 72 -49 52 -64 92 -64 175 0 70 3 80 32 122 l33 46 -30 0 c-29 0
-30 2 -30 43 0 24 3 47 8 51 4 4 140 6 302 4 l295 -3 57 -27z"/>
<path d="M463 3584 c-70 -35 -100 -143 -56 -202 20 -27 79 -72 94 -72 5 0 9
65 9 145 0 80 -3 145 -7 145 -5 0 -23 -8 -40 -16z"/>
<path d="M484 3001 c-131 -59 -131 -233 0 -292 138 -62 301 45 272 178 -24
110 -158 166 -272 114z"/>
<path d="M490 1804 c-70 -30 -103 -81 -103 -159 0 -122 103 -196 238 -171 48
9 112 68 126 116 16 53 4 123 -29 161 -52 63 -156 86 -232 53z"/>
<path d="M507 828 c-141 -38 -165 -233 -36 -298 48 -25 147 -27 195 -4 141 67
115 264 -39 303 -53 13 -68 13 -120 -1z"/>
</g>
</svg>
