<?xml version="1.0" standalone="no"?>
<!DOCTYPE svg PUBLIC "-//W3C//DTD SVG 20010904//EN"
 "http://www.w3.org/TR/2001/REC-SVG-20010904/DTD/svg10.dtd">
<svg version="1.0" xmlns="http://www.w3.org/2000/svg"
 width="500.000000pt" height="500.000000pt" viewBox="0 0 500.000000 500.000000"
 preserveAspectRatio="xMidYMid meet">

<g transform="translate(0.000000,500.000000) scale(0.100000,-0.100000)"
fill="#000000" stroke="none">
<path d="M2892 3848 c-52 -69 -69 -104 -93 -191 -16 -62 -18 -66 -14 -25 l4
47 -42 15 c-92 32 -114 36 -208 36 -119 0 -173 -12 -399 -90 -166 -57 -179
-60 -271 -60 -68 0 -116 6 -160 20 -35 10 -65 17 -68 14 -13 -13 50 -101 94
-131 110 -76 205 -72 450 17 72 26 163 53 204 59 73 12 237 6 246 -9 2 -3 -30
-12 -72 -18 -100 -16 -260 -62 -370 -108 -49 -20 -154 -62 -235 -93 -187 -74
-241 -106 -349 -211 -169 -166 -250 -332 -280 -578 -20 -169 16 -349 93 -459
109 -156 254 -289 421 -387 86 -50 235 -114 302 -130 l30 -8 -25 28 c-14 15
-88 77 -165 139 -176 142 -219 187 -297 320 -65 110 -118 281 -118 382 0 73
24 185 60 276 78 201 244 370 418 428 37 12 74 24 82 27 8 3 -16 -23 -54 -58
-282 -261 -342 -584 -165 -882 66 -112 162 -200 349 -323 223 -146 277 -203
356 -373 2 -4 115 15 199 35 81 18 243 79 266 100 9 8 27 47 40 86 19 58 24
93 23 182 0 214 -59 327 -291 567 -127 131 -157 169 -187 230 -31 64 -64 203
-51 216 2 2 11 -12 20 -32 41 -85 130 -133 272 -145 165 -15 259 -64 309 -164
31 -61 73 -87 140 -87 38 0 55 5 69 20 12 13 31 20 57 20 44 0 78 27 78 63 0
12 11 40 25 62 27 44 31 84 13 118 -6 12 -37 56 -68 97 -31 41 -77 102 -101
136 -24 33 -109 148 -189 255 -80 107 -156 209 -168 227 l-23 32 25 53 c24 50
53 194 41 205 -3 3 -12 -3 -20 -15 -8 -11 -44 -58 -80 -103 l-65 -83 -2 99
c-1 54 0 123 1 152 1 28 -2 52 -7 52 -5 0 -28 -24 -50 -52z m172 -596 c15 -9
39 -36 53 -59 l24 -42 -57 22 c-40 16 -67 35 -93 66 l-36 44 40 -7 c22 -4 53
-15 69 -24z m-1017 -425 c2 -73 6 -90 42 -162 47 -94 114 -168 208 -229 69
-44 123 -68 340 -151 231 -88 337 -184 373 -337 13 -57 12 -100 -1 -135 l-11
-28 -15 45 c-39 119 -192 238 -378 294 -44 14 -127 39 -185 56 -124 38 -194
72 -275 133 -140 106 -203 283 -160 446 13 51 52 151 59 151 0 0 2 -37 3 -83z"/>
<path d="M1957 1439 c-53 -126 -100 -235 -104 -241 -2 -5 0 -8 5 -8 5 0 15 14
22 30 12 30 13 30 95 30 82 0 83 0 95 -30 7 -16 16 -30 20 -30 7 0 -102 266
-114 278 -3 2 -11 -11 -19 -29z m56 -86 c19 -45 32 -84 29 -87 -8 -9 -130 -7
-135 2 -4 7 64 175 68 170 1 -2 18 -40 38 -85z"/>
<path d="M2172 1328 c1 -79 3 -113 5 -75 l4 67 52 0 c52 0 52 -1 106 -65 29
-36 58 -65 64 -65 11 0 5 7 -58 79 l-39 45 28 7 c68 19 90 89 40 128 -23 18
-41 21 -115 21 l-89 0 2 -142z m200 105 c22 -20 23 -51 1 -75 -13 -15 -32 -18
-105 -18 l-88 0 0 55 0 55 87 0 c66 0 91 -4 105 -17z"/>
<path d="M2480 1331 c0 -87 4 -141 10 -141 6 0 10 51 10 134 0 79 -4 137 -10
141 -6 4 -10 -43 -10 -134z"/>
<path d="M2640 1452 c-74 -39 -98 -144 -47 -208 60 -76 175 -67 227 18 69 114
-63 253 -180 190z m139 -28 c89 -74 38 -214 -78 -214 -26 0 -56 7 -69 16 -49
34 -66 109 -37 164 32 63 129 81 184 34z"/>
<path d="M2912 1328 l2 -143 3 123 c2 67 7 122 11 121 4 0 52 -54 107 -119 55
-66 103 -120 108 -120 4 0 7 63 7 140 0 175 -18 190 -22 18 l-3 -121 -104 121
c-57 67 -105 122 -107 122 -2 0 -3 -64 -2 -142z"/>
<path d="M1300 990 l0 -60 43 0 c42 0 67 13 67 34 0 6 -5 3 -11 -6 -7 -12 -22
-18 -49 -18 l-40 0 0 50 0 50 40 0 c27 0 42 -6 49 -17 6 -10 11 -13 11 -7 0
21 -25 34 -67 34 l-43 0 0 -60z"/>
<path d="M1532 1009 c-2 -48 -12 -63 -47 -72 -19 -4 -19 -5 1 -6 35 -2 56 31
51 80 l-4 44 -1 -46z"/>
<path d="M1572 988 l2 -63 3 58 4 57 39 0 c21 0 41 -5 43 -10 3 -6 4 -5 3 2
-2 8 -21 14 -49 16 l-47 3 2 -63z"/>
<path d="M1700 990 l0 -60 53 2 52 2 -47 3 -48 4 0 49 0 49 48 4 47 3 -52 2
-53 2 0 -60z"/>
<path d="M1973 1010 c0 -25 2 -35 4 -22 2 12 2 32 0 45 -2 12 -4 2 -4 -23z"/>
<path d="M2160 990 l0 -60 38 2 c36 1 36 1 5 5 -32 4 -33 5 -33 55 l0 51 42
-6 c27 -4 37 -2 27 4 -7 5 -29 9 -46 9 l-33 0 0 -60z"/>
<path d="M2323 1043 c15 -2 39 -2 55 0 15 2 2 4 -28 4 -30 0 -43 -2 -27 -4z"/>
<path d="M2436 1042 c-2 -4 13 -6 35 -4 21 2 39 6 39 8 0 7 -69 4 -74 -4z"/>
<path d="M2668 1043 c6 -2 18 -2 25 0 6 3 1 5 -13 5 -14 0 -19 -2 -12 -5z"/>
<path d="M2797 1037 c-3 -8 1 -14 8 -14 7 0 11 6 8 14 -3 7 -6 13 -8 13 -2 0
-5 -6 -8 -13z"/>
<path d="M3067 1037 c-3 -8 1 -14 8 -14 7 0 11 6 8 14 -3 7 -6 13 -8 13 -2 0
-5 -6 -8 -13z"/>
<path d="M3293 990 c0 -36 2 -50 4 -32 2 17 2 47 0 65 -2 17 -4 3 -4 -33z"/>
<path d="M3320 990 l0 -60 53 2 52 2 -47 3 -48 4 0 49 0 49 48 4 47 3 -52 2
-53 2 0 -60z"/>
<path d="M3478 1043 c12 -2 32 -2 45 0 12 2 2 4 -23 4 -25 0 -35 -2 -22 -4z"/>
<path d="M3602 1038 c-7 -7 -12 -16 -12 -22 0 -5 6 -2 13 8 10 14 23 17 50 14
19 -2 33 0 31 4 -8 12 -69 9 -82 -4z"/>
<path d="M3547 1011 c-4 -17 -3 -21 5 -13 5 5 8 16 6 23 -3 8 -7 3 -11 -10z"/>
<path d="M1866 1005 c-9 -26 -7 -32 5 -12 6 10 9 21 6 23 -2 3 -7 -2 -11 -11z"/>
<path d="M2622 990 c0 -14 2 -19 5 -12 2 6 2 18 0 25 -3 6 -5 1 -5 -13z"/>
<path d="M2910 995 c0 -5 5 -17 10 -25 5 -8 10 -10 10 -5 0 6 -5 17 -10 25 -5
8 -10 11 -10 5z"/>
<path d="M1620 986 c0 -2 8 -10 18 -17 15 -13 16 -12 3 4 -13 16 -21 21 -21
13z"/>
<path d="M2517 969 c4 -13 8 -18 11 -10 2 7 -1 18 -6 23 -8 8 -9 4 -5 -13z"/>
<path d="M2766 963 c-6 -14 -5 -15 5 -6 7 7 10 15 7 18 -3 3 -9 -2 -12 -12z"/>
<path d="M2830 971 c0 -6 4 -13 10 -16 6 -3 7 1 4 9 -7 18 -14 21 -14 7z"/>
<path d="M3036 963 c-6 -14 -5 -15 5 -6 7 7 10 15 7 18 -3 3 -9 -2 -12 -12z"/>
<path d="M3100 971 c0 -6 4 -13 10 -16 6 -3 7 1 4 9 -7 18 -14 21 -14 7z"/>
<path d="M1846 955 c-9 -26 -7 -32 5 -12 6 10 9 21 6 23 -2 3 -7 -2 -11 -11z"/>
<path d="M1920 965 c0 -5 5 -17 10 -25 5 -8 10 -10 10 -5 0 6 -5 17 -10 25 -5
8 -10 11 -10 5z"/>
<path d="M2056 953 c-6 -14 -5 -15 5 -6 7 7 10 15 7 18 -3 3 -9 -2 -12 -12z"/>
<path d="M1989 948 c7 -10 23 -17 35 -17 20 1 20 2 1 6 -11 3 -27 10 -35 17
-13 10 -13 9 -1 -6z"/>
<path d="M3530 956 c0 -2 8 -10 18 -17 15 -13 16 -12 3 4 -13 16 -21 21 -21
13z"/>
<path d="M2439 937 c5 -5 24 -7 42 -5 33 3 33 4 -8 8 -23 3 -39 2 -34 -3z"/>
<path d="M3645 940 l-40 -7 37 -2 c20 0 40 4 43 9 3 6 5 9 3 9 -2 -1 -21 -5
-43 -9z"/>
<path d="M2323 933 c15 -2 39 -2 55 0 15 2 2 4 -28 4 -30 0 -43 -2 -27 -4z"/>
<path d="M2668 933 c6 -2 18 -2 25 0 6 3 1 5 -13 5 -14 0 -19 -2 -12 -5z"/>
<path d="M3183 933 c15 -2 39 -2 55 0 15 2 2 4 -28 4 -30 0 -43 -2 -27 -4z"/>
</g>
</svg>
