<?xml version="1.0" standalone="no"?>
<!DOCTYPE svg PUBLIC "-//W3C//DTD SVG 20010904//EN"
 "http://www.w3.org/TR/2001/REC-SVG-20010904/DTD/svg10.dtd">
<svg version="1.0" xmlns="http://www.w3.org/2000/svg"
 width="195.000000pt" height="161.000000pt" viewBox="0 0 195.000000 161.000000"
 preserveAspectRatio="xMidYMid meet">

<g transform="translate(0.000000,161.000000) scale(0.100000,-0.100000)"
fill="#000000" stroke="none">
<path d="M1138 1412 c-15 -18 -32 -48 -39 -67 -10 -26 -17 -34 -29 -29 -99 43
-183 39 -344 -16 -140 -48 -186 -55 -256 -36 -30 8 -56 13 -58 12 -1 -2 8 -18
21 -37 53 -79 129 -86 308 -25 108 36 220 49 234 26 3 -6 -4 -10 -17 -10 -65
-1 -381 -115 -483 -174 -51 -30 -142 -126 -179 -190 -70 -120 -86 -320 -33
-429 36 -73 141 -185 229 -243 66 -44 215 -111 225 -101 2 3 -39 39 -91 81
-167 133 -237 246 -244 396 -5 104 13 174 67 257 58 89 134 151 214 174 26 7
23 3 -29 -54 -105 -113 -144 -244 -111 -370 30 -114 100 -198 245 -292 106
-69 164 -124 187 -176 14 -31 23 -39 44 -39 37 0 157 33 213 58 41 18 48 26
59 64 17 59 14 174 -5 226 -23 63 -70 127 -162 223 -86 88 -124 151 -123 204
l0 30 20 -28 c28 -37 66 -55 125 -61 107 -10 161 -36 200 -98 32 -50 69 -66
107 -44 16 9 40 16 53 16 17 0 28 8 36 28 6 15 16 40 23 56 7 16 11 36 7 45
-3 9 -69 102 -147 206 -189 254 -179 237 -162 272 14 28 31 113 23 113 -3 0
-25 -25 -50 -55 l-45 -56 -3 88 -3 87 -27 -32z m-61 -144 c-3 -7 -5 -2 -5 12
0 14 2 19 5 13 2 -7 2 -19 0 -25z m161 -204 c12 -8 26 -24 32 -34 9 -18 8 -18
-19 -9 -16 6 -39 21 -52 35 -21 23 -21 24 -3 24 11 0 30 -7 42 -16z m-560
-349 c42 -82 111 -130 288 -198 176 -69 243 -136 244 -244 0 -52 -12 -55 -29
-8 -23 66 -119 125 -274 170 -152 44 -225 91 -271 175 -26 47 -28 59 -24 129
2 42 11 87 18 101 14 24 15 23 21 -30 3 -30 15 -73 27 -95z"/>
</g>
</svg>
